<svg viewBox="0 0 82 24" fill="none" xmlns="http://www.w3.org/2000/svg">
<path fill-rule="evenodd" clip-rule="evenodd" d="M50.7458 23.2857C54.0172 23.2857 56.7756 22.1889 59.0197 19.9939C61.2638 17.8002 62.3845 15.0161 62.3845 11.6429C62.3845 8.26966 61.2638 5.48686 59.0197 3.29186C56.7756 1.09685 54.0185 0 50.7458 0C47.473 0 44.7094 1.09685 42.4534 3.29054C41.8852 3.84422 39.5582 7.03111 39.5582 7.03111L41.7221 9.77717L45.0395 5.70728V5.72828C45.0494 5.71779 45.0589 5.70731 45.0684 5.69683C45.078 5.68632 45.0875 5.67581 45.0974 5.6653C46.5536 4.1591 48.4307 3.406 50.7287 3.406C53.0267 3.406 54.9038 4.1591 56.3599 5.6653C57.8148 7.17281 58.5435 9.16577 58.5435 11.6429C58.5435 14.1213 57.8148 16.1195 56.3599 17.6362C54.9038 19.1542 53.0267 19.9007 50.7287 19.9125C47.1784 19.9309 45.0882 17.7096 45.0882 17.7096L34.6939 4.96993C34.2848 4.3769 33.8139 3.81666 33.2772 3.29186C31.0331 1.09685 28.276 0 25.0033 0C21.7305 0 18.9669 1.09685 16.7122 3.29186C14.4576 5.48555 13.3303 8.26966 13.3303 11.6429C13.3303 15.0161 14.4576 17.8002 16.7122 19.9939C18.9669 22.1889 21.7305 23.2857 25.0033 23.2857C28.2576 23.2857 31.0028 22.1994 33.2403 20.0293C33.2436 20.026 33.2478 20.0221 33.2527 20.0175C33.2596 20.011 33.2679 20.0031 33.2772 19.9939C33.2712 19.9998 33.265 20.0057 33.2587 20.0116C33.2525 20.0175 33.2463 20.0234 33.2403 20.0293C32.9825 20.2641 36.546 16.496 36.546 16.496L34.0638 13.5453C34.0638 13.5453 31.0081 19.9125 24.9862 19.9125C22.6881 19.9125 20.8111 19.1542 19.3549 17.6362C17.8987 16.1195 17.1713 14.1213 17.1713 11.6429C17.1713 9.16445 17.8987 7.1715 19.3549 5.6653C20.8111 4.1591 22.6881 3.406 24.9862 3.406C27.2842 3.406 29.1613 4.1591 30.6174 5.6653C30.6484 5.69706 30.6775 5.72941 30.7065 5.76156C30.7207 5.77722 30.7347 5.79283 30.749 5.80831V5.73615L33.6323 9.06999L41.1657 18.5034C41.7208 19.2696 42.2219 19.7669 42.4548 19.9939C44.7094 22.1889 47.473 23.2857 50.7458 23.2857ZM0 0.295207V23.0561V23.0574H14.5694L12.8423 19.6908H3.74365V0.295207H0ZM81.4671 23.0561L74.3744 11.6914L81.5 0.295207H77.2973L72.4382 8.58061L67.2831 0.295207H63.0803L70.173 11.6914L63.0803 23.0561H67.2831L72.1093 14.8035L77.2644 23.0561H81.4671Z" fill="black"/>
</svg>
